<svg xmlns="http://www.w3.org/2000/svg" width="342" height="286" viewBox="0 0 342 286" fill="none">
    <path d="M62.1154 0.862305L124.231 36.7246L62.1154 72.587L1.68374e-05 36.7246L62.1154 0.862305Z"
        fill="#6212EC" />
    <path d="M62.1154 71.8516L124.231 107.714L62.1154 143.576L1.68374e-05 107.714L62.1154 71.8516Z"
        fill="#6212EC" />
    <path opacity="0.8"
        d="M62.1154 142.841L124.231 178.703L62.1154 214.565L1.68374e-05 178.703L62.1154 142.841Z"
        fill="#6212EC" />
    <path opacity="0.4"
        d="M62.1154 214.197L124.231 250.06L62.1154 285.922L1.68374e-05 250.06L62.1154 214.197Z"
        fill="#6212EC" />
    <path opacity="0.2"
        d="M124.483 107.622L124.483 179.346L186.599 143.484L186.599 71.7593L124.483 107.622Z"
        fill="#D9D9D9" />
    <path opacity="0.1"
        d="M186.28 143.3L186.28 215.025L248.396 179.163L248.396 107.438L186.28 143.3Z"
        fill="#D9D9D9" />
    <path opacity="0.1"
        d="M248.81 34.7935L248.81 106.518L310.925 70.6558L310.925 -1.06882L248.81 34.7935Z"
        fill="#D9D9D9" />
    <path opacity="0.1"
        d="M248.81 178.978L248.81 250.703L310.925 214.84L310.925 143.116L248.81 178.978Z"
        fill="#D9D9D9" />
</svg>