<svg xmlns="http://www.w3.org/2000/svg" version="1.1" width="160" height="190">
    <path
        d="M0 0 C4.46993728 4.04422897 7.50328857 9.11820091 7.83032227 15.18212891 C7.8722152 16.82182303 7.9088856 18.46165572 7.94140625 20.1015625 C7.96218735 20.96437836 7.98296844 21.82719421 8.00437927 22.71615601 C8.06986034 25.47735493 8.12875298 28.23865038 8.1875 31 C8.2306866 32.86980172 8.27430093 34.73959362 8.31835938 36.609375 C8.42554024 41.19781728 8.52681175 45.78635683 8.625 50.375 C9.24141357 50.05499023 9.85782715 49.73498047 10.49291992 49.40527344 C15.22115254 47.12047536 20.23380647 47.11562494 25.3125 48.0625 C28.88805905 49.47923094 31.53349757 51.11292505 34.625 53.375 C35.57375 52.570625 36.5225 51.76625 37.5 50.9375 C43.03509976 46.99346131 48.76557072 46.93881587 55.3125 47.9375 C60.10150257 50.0157464 64.23320189 52.51494009 66.58709717 57.35205078 C68.44703067 62.91688358 69.04335229 67.83935849 68.953125 73.6875 C68.95125183 74.54126221 68.94937866 75.39502441 68.94744873 76.2746582 C68.94077456 78.06628369 68.92695371 79.85789577 68.90625 81.64941406 C68.8750805 84.36797918 68.86526606 87.08596118 68.859375 89.8046875 C68.85020259 91.55729862 68.83982606 93.30990394 68.828125 95.0625 C68.82387512 95.86276611 68.81962524 96.66303223 68.81524658 97.48754883 C68.60156329 114.63776088 63.5402832 127.98506014 52.140625 140.9765625 C50.625 142.375 50.625 142.375 48.625 142.375 C48.295 143.365 47.965 144.355 47.625 145.375 C33.49195502 156.61363909 18.00708228 158.38693444 0.625 157.375 C-6.70419172 156.32244448 -12.93331356 153.96747897 -19.375 150.375 C-19.375 149.715 -19.375 149.055 -19.375 148.375 C-20.096875 148.313125 -20.81875 148.25125 -21.5625 148.1875 C-25.23966069 147.12520913 -26.90573778 145.13212958 -29.375 142.375 C-30.05820312 141.70597656 -30.74140625 141.03695312 -31.4453125 140.34765625 C-44.39615323 127.15535917 -47.73015003 111.73407649 -47.75 93.75 C-47.77449219 92.574375 -47.79898438 91.39875 -47.82421875 90.1875 C-47.8512831 82.15841037 -46.93735896 76.50319227 -41.62890625 70.3515625 C-40.79166016 69.68253906 -40.79166016 69.68253906 -39.9375 69 C-39.10412109 68.30777344 -39.10412109 68.30777344 -38.25390625 67.6015625 C-36.375 66.375 -36.375 66.375 -31.375 64.375 C-31.045 56.785 -30.715 49.195 -30.375 41.375 C-29.715 41.375 -29.055 41.375 -28.375 41.375 C-28.375 40.715 -28.375 40.055 -28.375 39.375 C-27.715 39.375 -27.055 39.375 -26.375 39.375 C-26.375 40.035 -26.375 40.695 -26.375 41.375 C-23.405 40.715 -20.435 40.055 -17.375 39.375 C-17.705 38.715 -18.035 38.055 -18.375 37.375 C-20.92851113 36.94447737 -20.92851113 36.94447737 -23.875 36.8125 C-29.27871389 36.47128611 -29.27871389 36.47128611 -30.375 35.375 C-30.68538255 31.69621763 -30.65360306 28.00274696 -30.6875 24.3125 C-30.71650391 23.28705078 -30.74550781 22.26160156 -30.77539062 21.20507812 C-30.84058773 13.36637978 -29.48913172 7.96096986 -24.3125 2 C-17.29579668 -3.88497698 -8.09629965 -3.89821835 0 0 Z M-18.375 9.375 C-18.375 10.035 -18.375 10.695 -18.375 11.375 C-19.035 11.375 -19.695 11.375 -20.375 11.375 C-20.375 16.325 -20.375 21.275 -20.375 26.375 C-16.415 26.705 -12.455 27.035 -8.375 27.375 C-8.375 34.965 -8.375 42.555 -8.375 50.375 C-12.335 50.375 -16.295 50.375 -20.375 50.375 C-20.40185938 52.52076637 -20.42133088 54.66662645 -20.4375 56.8125 C-20.44910156 58.00746094 -20.46070312 59.20242187 -20.47265625 60.43359375 C-20.71401792 63.26373341 -20.71401792 63.26373341 -19.375 64.375 C-16.51232433 64.44825168 -13.674281 64.46738205 -10.8125 64.4375 C-9.60303711 64.43073242 -9.60303711 64.43073242 -8.36914062 64.42382812 C-6.37106244 64.41200518 -4.37302217 64.39406914 -2.375 64.375 C-2.24818605 57.06114216 -2.16064242 49.74756798 -2.1003418 42.43286133 C-2.07520329 39.94479782 -2.04108753 37.45680812 -1.99780273 34.96899414 C-1.9371257 31.39190459 -1.90878266 27.81579165 -1.88671875 24.23828125 C-1.86091232 23.12665115 -1.8351059 22.01502106 -1.80851746 20.8697052 C-1.6429625 14.46068728 -1.6429625 14.46068728 -4.7722168 9.16845703 C-9.40725448 5.97466782 -13.6193536 6.20456907 -18.375 9.375 Z M11.625 60.375 C10.26519119 63.45061246 10.26519119 63.45061246 9.625 66.375 C12.29747634 68.71787418 12.29747634 68.71787418 15.625 69.375 C15.625 70.035 15.625 70.695 15.625 71.375 C16.285 71.375 16.945 71.375 17.625 71.375 C19.81881427 77.95644281 20.63063676 83.30516147 18.4375 90 C16.48241817 93.6404972 14.38353463 96.31824541 11.625 99.375 C12.615 99.375 13.605 99.375 14.625 99.375 C14.625 100.035 14.625 100.695 14.625 101.375 C20.17993924 102.40203748 20.17993924 102.40203748 25.625 101.375 C25.625 100.715 25.625 100.055 25.625 99.375 C26.285 99.375 26.945 99.375 27.625 99.375 C30.03630692 95.75803962 29.98127596 93.00966437 30.03125 88.8203125 C30.04265015 88.08175018 30.05405029 87.34318787 30.0657959 86.58224487 C30.08467238 85.02054556 30.0977546 83.458767 30.10546875 81.89697266 C30.12488162 79.51452867 30.18692342 77.13553989 30.25 74.75390625 C30.26306175 73.23439543 30.27356205 71.71486001 30.28125 70.1953125 C30.3059436 69.48682159 30.33063721 68.77833069 30.3560791 68.04837036 C30.33101869 65.24828945 30.14657582 63.03115557 28.37011719 60.79632568 C25.58957098 58.34413489 23.75451465 57.3931775 20.0625 56.875 C16.36276364 57.41314347 14.46004096 57.94496489 11.625 60.375 Z M40.625 61.375 C38.38559495 65.8538101 39.43915583 71.99359443 39.43969727 76.97802734 C39.43751524 79.23424259 39.41936833 81.48996534 39.40039062 83.74609375 C39.39745569 85.18229 39.39547156 86.61848856 39.39453125 88.0546875 C39.39042236 89.36163574 39.38631348 90.66858398 39.38208008 92.01513672 C39.60915335 95.15582245 39.81694866 96.84231238 41.625 99.375 C45.64455829 101.73944606 47.73403676 102.52349387 52.375 101.75 C56.04505577 100.20280806 56.04505577 100.20280806 58.625 97.375 C60.28105891 92.40682326 59.81093349 87.23564819 59.81030273 82.03320312 C59.81248475 80.01410706 59.83064123 77.99556164 59.84960938 75.9765625 C59.85154297 74.6978125 59.85347656 73.4190625 59.85546875 72.1015625 C59.86163208 70.34706787 59.86163208 70.34706787 59.86791992 68.55712891 C59.62477188 65.37201175 59.07425504 63.20667473 57.625 60.375 C54.73412767 57.97970578 52.86518705 57.40502338 49.125 56.9375 C45.0558964 57.44613795 43.49154931 58.50845069 40.625 61.375 Z M-35.375 77.375 C-38.67578887 82.32618331 -37.74400786 87.93163668 -37.75 93.75 C-37.77449219 94.96300781 -37.79898438 96.17601563 -37.82421875 97.42578125 C-37.85518095 107.09630721 -36.44570564 116.92382394 -31.375 125.375 C-30.385 126.035 -29.395 126.695 -28.375 127.375 C-27.35633771 129.03032623 -26.35689187 130.69760138 -25.375 132.375 C-16.89692023 142.00918155 -4.87669512 147.5991991 7.79296875 148.53515625 C21.98384314 149.05405945 34.59796978 143.75118994 44.9375 134.25 C46.84798824 132.54766104 46.84798824 132.54766104 46.625 130.375 C47.615 130.045 48.605 129.715 49.625 129.375 C51.24162819 127.23093142 51.24162819 127.23093142 52.6875 124.625 C53.19410156 123.76390625 53.70070313 122.9028125 54.22265625 122.015625 C56.15305179 118.38067408 57.625 115.52760329 57.625 111.375 C56.68398437 111.33761719 55.74296875 111.30023438 54.7734375 111.26171875 C52.90558594 111.16310547 52.90558594 111.16310547 51 111.0625 C49.77023438 111.00449219 48.54046875 110.94648438 47.2734375 110.88671875 C43.45567117 110.35125045 40.95290671 109.27113289 37.625 107.375 C36.84125 106.983125 36.0575 106.59125 35.25 106.1875 C34.71375 105.919375 34.1775 105.65125 33.625 105.375 C33.625 106.035 33.625 106.695 33.625 107.375 C33.0475 107.49875 32.47 107.6225 31.875 107.75 C29.63471791 108.27510765 29.63471791 108.27510765 27.83984375 109.3828125 C23.32699877 111.40443971 18.43670799 111.07444627 13.625 110.375 C9.44852788 108.49984925 5.78681918 106.20304317 3.30175781 102.29296875 C1.79674822 100.18273609 1.79674822 100.18273609 -0.55151367 99.92089844 C-1.37369385 99.9418457 -2.19587402 99.96279297 -3.04296875 99.984375 C-4.38198242 100.00371094 -4.38198242 100.00371094 -5.74804688 100.0234375 C-6.67681641 100.05695313 -7.60558594 100.09046875 -8.5625 100.125 C-9.50287109 100.14304687 -10.44324219 100.16109375 -11.41210938 100.1796875 C-13.73350736 100.22682248 -16.05438194 100.2985661 -18.375 100.375 C-18.375 97.405 -18.375 94.435 -18.375 91.375 C-17.70968262 91.40118408 -17.04436523 91.42736816 -16.35888672 91.4543457 C-13.32283465 91.5587546 -10.28716089 91.62346348 -7.25 91.6875 C-6.20328125 91.72939453 -5.1565625 91.77128906 -4.078125 91.81445312 C2.5887181 92.00067402 2.5887181 92.00067402 8.3046875 88.98046875 C11.04361519 86.06743518 11.04361519 86.06743518 11.625 82.375 C10.50024748 77.87598992 8.47169528 75.86791017 4.625 73.375 C1.91192379 72.9842315 -0.38428849 72.81241355 -3.08984375 72.84375 C-3.8232045 72.8399231 -4.55656525 72.83609619 -5.31214905 72.83215332 C-6.85777159 72.82944067 -8.40344055 72.83675663 -9.94897461 72.85351562 C-12.30232221 72.87490748 -14.652607 72.85371185 -17.00585938 72.828125 C-18.51302751 72.830769 -20.02019376 72.83589547 -21.52734375 72.84375 C-22.22439926 72.83565308 -22.92145477 72.82755615 -23.63963318 72.81921387 C-28.65691186 72.91447023 -31.51693887 74.22019216 -35.375 77.375 Z "
        fill="#18191A" transform="translate(72.375,21.625)" />
    <path
        d="M0 0 C3.81248426 -0.02887236 7.6249407 -0.04675492 11.4375 -0.0625 C12.52611328 -0.07087891 13.61472656 -0.07925781 14.73632812 -0.08789062 C15.77080078 -0.09111328 16.80527344 -0.09433594 17.87109375 -0.09765625 C18.82943115 -0.10289307 19.78776855 -0.10812988 20.77514648 -0.11352539 C23 0 23 0 24 1 C24.0991657 2.62257544 24.13079777 4.24939831 24.1328125 5.875 C24.13474609 7.35226563 24.13474609 7.35226563 24.13671875 8.859375 C24.13285156 9.89578125 24.12898438 10.9321875 24.125 12 C24.13080078 13.55460937 24.13080078 13.55460937 24.13671875 15.140625 C24.13542969 16.12546875 24.13414063 17.1103125 24.1328125 18.125 C24.13168457 19.03507812 24.13055664 19.94515625 24.12939453 20.8828125 C24 23 24 23 23 24 C21.37742456 24.0991657 19.75060169 24.13079777 18.125 24.1328125 C17.14015625 24.13410156 16.1553125 24.13539062 15.140625 24.13671875 C14.10421875 24.13285156 13.0678125 24.12898438 12 24.125 C10.44539063 24.13080078 10.44539063 24.13080078 8.859375 24.13671875 C7.87453125 24.13542969 6.8896875 24.13414063 5.875 24.1328125 C4.96492188 24.13168457 4.05484375 24.13055664 3.1171875 24.12939453 C1 24 1 24 0 23 C-0.08713831 21.29227642 -0.10700007 19.58101351 -0.09765625 17.87109375 C-0.09443359 16.83662109 -0.09121094 15.80214844 -0.08789062 14.73632812 C-0.07951172 13.64771484 -0.07113281 12.55910156 -0.0625 11.4375 C-0.05798828 10.34501953 -0.05347656 9.25253906 -0.04882812 8.12695312 C-0.03699826 5.41791505 -0.02051543 2.70898401 0 0 Z M10 10 C9.67 10.99 9.34 11.98 9 13 C9.99 13.33 10.98 13.66 12 14 C12.66 13.67 13.32 13.34 14 13 C13.67 12.01 13.34 11.02 13 10 C12.01 10 11.02 10 10 10 Z "
        fill="#1A1A1B" transform="translate(15,48)" />
    <path
        d="M0 0 C0.33 0 0.66 0 1 0 C1 1.65 1 3.3 1 5 C-3.29 5 -7.58 5 -12 5 C-12 12.59 -12 20.18 -12 28 C-12.66 27.67 -13.32 27.34 -14 27 C-13.67 19.41 -13.34 11.82 -13 4 C-12.34 4 -11.68 4 -11 4 C-11 3.34 -11 2.68 -11 2 C-10.34 2 -9.68 2 -9 2 C-9 2.66 -9 3.32 -9 4 C-6.03 3.34 -3.06 2.68 0 2 C0 1.34 0 0.68 0 0 Z "
        fill="#86888B" transform="translate(55,59)" />
</svg>