<svg xmlns="http://www.w3.org/2000/svg" width="341" height="338" viewBox="0 0 341 338" fill="none">
    <path opacity="0.6"
        d="M93.0119 180.15L155.127 216.013L93.0119 251.875L30.8965 216.013L93.0119 180.15Z"
        fill="#6212EC" />
    <path opacity="0.4"
        d="M154.805 72.0117L216.92 107.874L154.805 143.736L92.6895 107.874L154.805 72.0117Z"
        fill="#6212EC" />
    <path opacity="0.6"
        d="M154.805 0.655273L216.92 36.5176L154.805 72.3799L92.6895 36.5176L154.805 0.655273Z"
        fill="#6212EC" />
    <path opacity="0.9"
        d="M93.1729 108.15L93.1729 179.875L31.0575 144.012L31.0576 72.2876L93.1729 108.15Z"
        fill="#6212EC" />
    <path opacity="0.3"
        d="M93.0119 251.508L155.127 287.37L93.0119 323.232L30.8965 287.37L93.0119 251.508Z"
        fill="#6212EC" />
    <path opacity="0.1"
        d="M279.29 149.346L279.29 221.071L217.175 185.209L217.175 113.484L279.29 149.346Z"
        fill="#6212EC" />
    <path opacity="0.2"
        d="M275.61 247.921L275.61 319.646L213.495 283.784L213.495 212.059L275.61 247.921Z"
        fill="#D9D9D9" />
    <path opacity="0.3"
        d="M341.085 108.335L278.97 144.197L278.969 72.4722L341.085 36.6099L341.085 108.335Z"
        fill="#DE3AF7" />
    <path opacity="0.2"
        d="M279.288 72.6558L217.173 108.518L217.173 36.7935L279.288 0.931152L279.288 72.6558Z"
        fill="#DE3AF7" />
</svg>